<?xml version="1.0" encoding="UTF-8" standalone="no"?>
<!-- Created with Inkscape (http://www.inkscape.org/) -->

<svg
   xmlns:dc="http://purl.org/dc/elements/1.1/"
   xmlns:cc="http://creativecommons.org/ns#"
   xmlns:rdf="http://www.w3.org/1999/02/22-rdf-syntax-ns#"
   xmlns:svg="http://www.w3.org/2000/svg"
   xmlns="http://www.w3.org/2000/svg"
   xmlns:sodipodi="http://sodipodi.sourceforge.net/DTD/sodipodi-0.dtd"
   xmlns:inkscape="http://www.inkscape.org/namespaces/inkscape"
   width="124.94698"
   height="177.16536"
   id="svg3783"
   version="1.1"
   inkscape:version="0.48.4 r9939"
   sodipodi:docname="yaks_logo.svg"
   inkscape:export-filename="/tmp/yaks_logo_50mm_300dpi.png"
   inkscape:export-xdpi="300"
   inkscape:export-ydpi="300">
  <defs
     id="defs3785" />
  <sodipodi:namedview
     id="base"
     pagecolor="#ffffff"
     bordercolor="#666666"
     borderopacity="1.0"
     inkscape:pageopacity="0.0"
     inkscape:pageshadow="2"
     inkscape:zoom="2.8"
     inkscape:cx="-25.601428"
     inkscape:cy="112.52842"
     inkscape:document-units="px"
     inkscape:current-layer="layer1"
     showgrid="false"
     fit-margin-top="0"
     fit-margin-left="0"
     fit-margin-right="0"
     fit-margin-bottom="0"
     units="mm"
     inkscape:window-width="1916"
     inkscape:window-height="536"
     inkscape:window-x="0"
     inkscape:window-y="540"
     inkscape:window-maximized="0" />
  <metadata
     id="metadata3788">
    <rdf:RDF>
      <cc:Work
         rdf:about="">
        <dc:format>image/svg+xml</dc:format>
        <dc:type
           rdf:resource="http://purl.org/dc/dcmitype/StillImage" />
        <dc:title></dc:title>
      </cc:Work>
    </rdf:RDF>
  </metadata>
  <g
     inkscape:label="Layer 1"
     inkscape:groupmode="layer"
     id="layer1"
     transform="translate(1032.9074,-1972.7888)">
    <path
       style="color:#000000;fill:#ff0000;fill-opacity:1;fill-rule:nonzero;stroke:none;stroke-width:1.25000000000000000;marker:none;visibility:visible;display:inline;overflow:visible;enable-background:accumulate"
       d="M 0 49.875 L 0 151.65625 L 124.9375 151.65625 L 124.9375 49.875 L 0 49.875 z "
       id="rect4822"
       transform="translate(-1032.9074,1972.7888)" />
    <path
       style="color:#000000;fill:#ff7f7f;fill-opacity:1;fill-rule:nonzero;stroke:none;stroke-width:1;marker:none;visibility:visible;display:inline;overflow:visible;enable-background:accumulate"
       d="M 0 151.65625 L 0 177.15625 L 124.9375 177.15625 L 124.9375 151.65625 L 0 151.65625 z "
       id="rect4841"
       transform="translate(-1032.9074,1972.7888)" />
    <g
       id="g4008"
       transform="translate(-4.2417438e-5,2.9748536e-5)">
      <path
         sodipodi:nodetypes="csscccccccccccccccccsscsscccccssc"
         style="fill:#ff0000;fill-opacity:1;stroke:none"
         d="m -1004.0092,1972.7889 c 0,0 8.39412,12.914 3.8863,21.2958 -3.6995,6.8789 -12.9639,11.3588 -19.1063,15.8025 -8.39,6.0698 -14.1565,17.4966 -13.6469,24.5505 1.7688,13.6387 11.4219,19.0649 17.1183,21.1028 l -11.1627,10.3295 8.8174,19.4094 13.342,-1.9219 7.36622,15.7635 4.96664,24.6232 -2.83468,22.7776 24.82815,2.8262 24.82989,-2.8262 -2.83473,-22.7776 4.96669,-24.6232 7.36613,-15.7635 13.34207,1.9219 8.81733,-19.4094 -11.16269,-10.3295 c 5.69639,-2.0378 15.34951,-7.4641 17.11831,-21.1028 0.50958,-7.0539 -5.25687,-18.4807 -13.64687,-24.5505 -6.14241,-4.4437 -15.40679,-8.9236 -19.1063,-15.8025 -4.50783,-8.3818 3.8863,-21.2958 3.8863,-21.2958 -2.86307,1.3581 -5.1686,6.0874 -7.48811,18.0462 -2.55577,13.1772 11.41526,32.102 6.3163,41.6129 -1.1703,2.1829 -5.09686,7.5327 -11.10173,8.5853 -1.28203,0.2248 -8.39635,-1.5961 -10.06203,-2.1183 -3.31586,-1.0395 -7.63457,-1.0782 -11.23888,-1.0685 -3.60446,-0.01 -7.92437,0.029 -11.24055,1.0685 -1.66568,0.5221 -8.78,2.3431 -10.06203,2.1183 -6.00487,-1.0526 -9.93143,-6.4024 -11.10173,-8.5853 -5.099,-9.5109 8.87207,-28.4357 6.3163,-41.6129 -2.31946,-11.9588 -4.625,-16.6881 -7.4881,-18.0462 z"
         id="path4710"
         inkscape:connector-curvature="0" />
      <path
         sodipodi:nodetypes="csscccccccccccssc"
         inkscape:connector-curvature="0"
         id="path4712"
         d="m -1004.0084,1972.7888 c 0,0 8.39413,12.9139 3.8863,21.2958 -3.6995,6.8789 -12.9639,11.3588 -19.1063,15.8025 -8.39,6.0698 -14.1565,17.4966 -13.6469,24.5505 1.7688,13.6387 11.4219,19.065 17.1183,21.1028 l -11.1627,10.3295 8.8174,19.4094 13.342,-1.922 7.36618,15.7636 4.96669,24.6232 -2.83473,22.7776 21.80892,2.4825 c -3.4929,-17.0434 -8.21964,-110.0894 -8.21964,-110.0894 0,0 -8.77995,2.3432 -10.06198,2.1185 -6.00487,-1.0527 -9.93144,-6.4025 -11.10174,-8.5854 -5.0989,-9.5108 8.87202,-28.4357 6.31626,-41.6129 -2.31946,-11.9588 -4.62496,-16.6881 -7.48806,-18.0462 z"
         style="fill:#d40000;fill-opacity:1;stroke:none" />
      <path
         style="color:#000000;fill:#ff7f7f;fill-opacity:1;fill-rule:nonzero;stroke:none;marker:none;visibility:visible;display:inline;overflow:visible;enable-background:accumulate"
         d="m -985.10899,2050.2467 -9.39887,1.8678 -1.70936,13.3244 6.15021,11.1024 10.57302,13.317 -4.80218,-18.9334 13.69174,19.1666 4.59209,13.2472 1.27331,-18.4179 4.39154,-16.6338 4.35226,19.5894 5.63158,-15.8531 -0.3099,-11.2575 -3.31549,-11.4775 -12.74231,-2.1035 -7.23706,7.4697 z"
         id="path4714"
         inkscape:connector-curvature="0"
         sodipodi:nodetypes="ccccccccccccccccc" />
      <path
         style="fill:#550000;fill-opacity:1;stroke:none"
         d="m -1004.01,1973.0029 c 0,0 8.39411,12.914 3.8862,21.2958 -3.6995,6.8789 -12.9638,11.3588 -19.1062,15.8025 -5.3727,3.8869 -9.6679,9.9705 -11.9298,15.6959 l 15.1204,-3.3335 12.1598,3.3335 c 0.9547,-10.1258 9.39211,-24.2585 7.35763,-34.7479 -2.31945,-11.9589 -4.62503,-16.6882 -7.48803,-18.0463 z m 67.15049,0 c -2.86301,1.3581 -5.16854,6.0874 -7.48805,18.0463 -2.03448,10.4894 6.40294,24.6221 7.35767,34.7479 l 7.61951,-5.4547 19.66238,5.4547 c -2.26191,-5.7254 -6.55884,-11.809 -11.93146,-15.6959 -6.1424,-4.4437 -15.40678,-8.9236 -19.10629,-15.8025 -4.50783,-8.3818 3.88629,-21.2958 3.88624,-21.2958 z"
         id="path4718"
         inkscape:connector-curvature="0"
         sodipodi:nodetypes="csscccsccscccssc" />
      <path
         sodipodi:nodetypes="cccccccccccccccccccccccccccccccccccccccccccccccccccccccccccccccccccccccccccccccccccccccccccccccccccccccccccccccccccccccccccccccccccccccccccccccccccccccccccccccccccccccccccccccccccccccccccccccccccccccccccccccccccccccccccccccccccccc"
         inkscape:connector-curvature="0"
         id="path4720"
         d="m -982.43829,2129.7824 0.1067,0.5453 0.30313,1.2564 0.21507,0.718 0.2523,0.6825 0.28616,0.5758 0.15411,0.2251 0.16089,0.1728 0.59265,0.4842 0.57065,0.4064 0.54697,0.3371 0.51988,0.2743 0.49105,0.215 0.45892,0.166 0.42504,0.1185 0.39119,0.08 0.66548,0.069 0.49782,-0.014 0.3099,-0.044 0.10838,-0.026 0.91951,0.5928 0.85178,0.5943 0.84836,0.6621 0.32177,0.2947 0.27939,0.2929 0.23198,0.2845 0.18966,0.2693 0.24384,0.4588 0.0559,0.1761 0.0102,0.1287 -1.76111,0.3252 -0.87546,0.1659 -0.88564,0.1423 -0.65193,0.1067 -0.60962,0.1236 -1.19554,0.254 -0.63503,0.105 -0.69599,0.073 -0.78063,0.029 -0.889,-0.027 -0.52833,-0.061 -0.50964,-0.1118 -0.48769,-0.1574 -0.4691,-0.2016 -0.44537,-0.2387 -0.42337,-0.2743 -0.39796,-0.3031 -0.37422,-0.3286 -0.34881,-0.3505 -0.32176,-0.3691 -0.29294,-0.381 -0.26585,-0.3912 -0.23539,-0.3945 -0.20483,-0.3963 -0.17275,-0.3912 -0.14056,-0.3843 -0.13038,-0.5216 -0.0474,-0.4826 0.0119,-0.4386 0.0525,-0.3793 0.0746,-0.3133 0.0779,-0.2353 0.0864,-0.2016 -3.30713,3.9744 0.12864,-0.017 0.32686,0.015 0.21166,0.049 0.23029,0.095 0.2354,0.1524 0.23197,0.2219 1.20568,1.4714 0.75863,0.8434 0.42505,0.42 0.45892,0.408 0.49614,0.3878 0.53343,0.3607 0.57569,0.3234 0.61812,0.2794 0.66548,0.2252 0.71121,0.166 0.76373,0.097 0.81449,0.019 0.97202,-0.056 0.88392,-0.1032 0.80772,-0.1474 0.73999,-0.1777 0.68244,-0.2032 0.63671,-0.2168 1.17522,-0.4488 0.55369,-0.1914 0.53684,-0.1405 0.52833,-0.097 0.52665,-0.064 1.07867,-0.061 0.26248,-0.01 0.26243,0.01 1.07872,0.061 0.5266,0.064 0.52833,0.097 0.53678,0.1405 0.55375,0.1914 1.17522,0.4488 0.63671,0.2168 0.68239,0.2032 0.74004,0.1777 0.80772,0.1474 0.88397,0.1032 0.97197,0.056 0.81449,-0.019 0.76373,-0.097 0.71121,-0.166 0.66548,-0.2252 0.61807,-0.2794 0.5758,-0.3234 0.53337,-0.3607 0.4962,-0.3878 0.45886,-0.408 0.42505,-0.42 0.75863,-0.8434 1.20568,-1.4714 0.23197,-0.2219 0.2354,-0.1524 0.23029,-0.095 0.21166,-0.049 0.32681,-0.015 0.12875,0.017 -3.30719,-3.9744 0.0864,0.2016 0.0779,0.2353 0.0745,0.3133 0.0525,0.3793 0.0119,0.4386 -0.0474,0.4826 -0.13038,0.5216 -0.14056,0.3843 -0.1727,0.3912 -0.20493,0.3963 -0.2354,0.3945 -0.26584,0.3912 -0.29294,0.381 -0.32177,0.3691 -0.3488,0.3505 -0.37423,0.3286 -0.39795,0.3031 -0.42337,0.2743 -0.44532,0.2387 -0.46905,0.2016 -0.48769,0.1574 -0.50974,0.1118 -0.52833,0.061 -0.88901,0.027 -0.78063,-0.029 -0.69598,-0.073 -0.63503,-0.105 -1.19549,-0.254 -0.60962,-0.1236 -0.65198,-0.1067 -0.8856,-0.1423 -0.87551,-0.1659 -1.7611,-0.3252 0.0102,-0.1287 0.0559,-0.1761 0.24385,-0.4588 0.18966,-0.2693 0.23197,-0.2845 0.2794,-0.2929 0.32176,-0.2947 0.84837,-0.6621 0.85178,-0.5943 0.91951,-0.5928 0.10837,0.026 0.3099,0.044 0.49783,0.014 0.66553,-0.069 0.39113,-0.08 0.42505,-0.1185 0.45892,-0.166 0.49105,-0.215 0.51987,-0.2743 0.54698,-0.3371 0.57065,-0.4064 0.5927,-0.4842 0.16083,-0.1728 0.15411,-0.2251 0.28617,-0.5758 0.25235,-0.6825 0.21502,-0.718 0.30313,-1.2564 0.10669,-0.5453 -0.46227,0.047 -0.51988,0.081 -0.65703,0.1372 -0.75527,0.2066 -0.81282,0.2929 -0.82972,0.3895 -0.40982,0.2371 -0.39964,0.2658 -0.5351,0.4522 -0.51988,0.5537 -0.48596,0.6062 -0.43859,0.608 -0.65535,1.0194 -0.25062,0.4284 -0.52324,0.1965 -1.28864,0.4368 -0.801,0.2371 -0.83308,0.2116 -0.81456,0.1576 -0.0118,0 -0.0119,0 -0.81449,-0.1576 -0.83319,-0.2116 -0.80095,-0.2371 -1.28864,-0.4368 -0.52324,-0.1965 -0.25062,-0.4284 -0.65535,-1.0194 -0.43859,-0.608 -0.48601,-0.6062 -0.51983,-0.5537 -0.5351,-0.4522 -0.39964,-0.2658 -0.40982,-0.2371 -0.82972,-0.3895 -0.81282,-0.2929 -0.75527,-0.2066 -0.65703,-0.1372 -0.51982,-0.081 -0.46233,-0.047 z"
         style="color:#000000;fill:#000000;fill-opacity:1;stroke:none;stroke-width:50;marker:none;visibility:visible;display:inline;overflow:visible;enable-background:accumulate" />
      <path
         id="path4845"
         d="m -943.84871,2100.9852 -15.31824,6.064 -3.71696,16.4257 14.51388,0.8213 -0.0694,-0.5521 z"
         style="fill:#ff3b3b;fill-opacity:1;stroke:none"
         inkscape:connector-curvature="0"
         sodipodi:nodetypes="cccccc" />
      <path
         id="path4722"
         d="m -1004.009,1972.7888 c 0,0 8.39403,12.9139 3.8863,21.2958 -3.6996,6.8788 -12.9639,11.3588 -19.1063,15.8025 -8.3901,6.0697 -14.1565,17.4966 -13.6469,24.5505 1.7688,13.6386 11.4218,19.0649 17.1182,21.1027 0,0 -10.1611,5.3599 -11.1627,10.3296 -1.4038,6.966 2.5835,15.9984 8.8174,19.4094 3.9418,2.1567 13.3421,-1.922 13.3421,-1.922 l 7.36613,15.7636 4.96669,24.6232 -0.0677,0.5487 11.86713,-1.8204 17.74477,1.0025 1.68492,-18.7964 17.35028,-3.6933 0.3759,-1.8643 7.36613,-15.7636 c 0,0 9.40029,4.0788 13.34207,1.922 6.23398,-3.4111 10.22128,-12.4434 8.81739,-19.4094 -1.0015,-4.9697 -11.16269,-10.3296 -11.16269,-10.3296 5.69638,-2.0378 15.34945,-7.464 17.11825,-21.1027 0.50958,-7.0539 -5.25681,-18.4808 -13.64687,-24.5505 -6.14235,-4.4437 -15.40674,-8.9237 -19.10625,-15.8025 -4.50783,-8.3819 3.88619,-21.2958 3.8863,-21.2958 -2.86307,1.358 -5.1686,6.0874 -7.48811,18.0462 -2.55576,13.1772 11.41526,32.102 6.31624,41.6129 -1.17029,2.1829 -5.09679,7.5327 -11.10167,8.5853 -1.28203,0.2248 -8.39635,-1.5961 -10.06203,-2.1184 -3.31586,-1.0394 -7.63457,-1.0781 -11.23887,-1.0685 -3.60447,-0.01 -7.92443,0.029 -11.24061,1.0685 -1.66568,0.5221 -8.77995,2.3432 -10.06198,2.1184 -6.00487,-1.0526 -9.93142,-6.4024 -11.10172,-8.5853 -5.099,-9.5109 8.872,-28.4357 6.31624,-41.6129 -2.31946,-11.9588 -4.62504,-16.6882 -7.48804,-18.0462 z"
         style="fill:#ff0000;fill-opacity:1;stroke:none"
         inkscape:connector-curvature="0" />
      <path
         id="path4759"
         d="m -1003.6416,2085.7517 6.24683,13.3692 4.96669,24.6232 -0.0728,0.5842 11.69947,-1.7966 0.15921,0.01 0.0575,-0.01 4.21987,0.2387 c -0.39324,-4.7839 -0.77954,-9.9488 -1.15826,-15.2335 l -26.11851,-21.7852 z"
         style="color:#000000;fill:#d40000;fill-opacity:1;fill-rule:nonzero;stroke:none;marker:none;visibility:visible;display:inline;overflow:visible;enable-background:accumulate"
         inkscape:connector-curvature="0" />
      <path
         id="path4724"
         d="m -1004.009,1972.7888 c 0,0 8.39403,12.9139 3.8863,21.2958 -3.6996,6.8788 -12.9639,11.3588 -19.1063,15.8025 -8.3901,6.0697 -14.1565,17.4966 -13.6469,24.5505 1.7688,13.6386 11.4218,19.0649 17.1182,21.1027 0,0 -10.1611,5.3599 -11.1627,10.3296 -1.4038,6.966 2.5835,15.9984 8.8174,19.4094 3.9418,2.1567 13.3421,-1.922 13.3421,-1.922 l 1.1193,2.3944 26.11853,21.7852 c -2.26597,-31.6191 -4.15046,-68.6221 -4.15046,-68.6221 0,0 -8.77995,2.3432 -10.06198,2.1184 -6.00487,-1.0526 -9.93139,-6.4024 -11.10169,-8.5853 -5.099,-9.5108 8.87197,-28.4357 6.31621,-41.6129 -2.31946,-11.9588 -4.62501,-16.6881 -7.48801,-18.0462 z"
         style="color:#000000;fill:#bd0000;fill-opacity:1;fill-rule:nonzero;stroke:none;marker:none;visibility:visible;display:inline;overflow:visible;enable-background:accumulate"
         inkscape:connector-curvature="0" />
      <path
         id="path4753"
         d="m -970.02505,2149.8999 24.50957,-2.7721 -2.84709,-22.8444 -24.94488,-1.3334 z"
         style="color:#000000;fill:#ff9090;fill-opacity:1;fill-rule:nonzero;stroke:none;stroke-width:1;marker:none;visibility:visible;display:inline;overflow:visible;enable-background:accumulate"
         inkscape:connector-curvature="0"
         sodipodi:nodetypes="ccccc" />
      <path
         inkscape:connector-curvature="0"
         id="path4716"
         d="m -969.96555,2149.8999 -3.25323,-26.9499 -7.47834,-0.4183 -11.9688,1.8187 -2.86475,22.7774 25.09104,2.8263 0.47408,-0.054 z"
         style="color:#000000;fill:#ff7f7f;fill-opacity:1;fill-rule:nonzero;stroke:none;stroke-width:1;marker:none;visibility:visible;display:inline;overflow:visible;enable-background:accumulate" />
      <path
         id="path4774"
         d="m -961.46484,2034.5002 -5.95053,1.7357 -6.04026,1.7611 -5.25112,-1.1108 -3.86598,-0.8179 -5.15797,-1.0923 -6.07245,0.4826 -5.97079,0.4742 -2.19116,17.6483 7.88088,14.7069 13.54863,17.6398 -4.30961,-17.567 -1.84407,-7.5118 0.37423,0.3946 0.75694,0.7993 8.08586,8.5311 8.32628,15.662 5.80319,17.3046 0.0813,0.2421 1.63235,-24.3963 5.62708,-22.0325 5.57625,25.9475 7.21549,-20.9977 2.32157,-14.9119 -6.0504,-9.808 -14.52569,-3.0836 z"
         style="color:#000000;fill:#ff7f7f;fill-opacity:1;fill-rule:nonzero;stroke:none;marker:none;visibility:visible;display:inline;overflow:visible;enable-background:accumulate"
         inkscape:connector-curvature="0" />
      <path
         style="color:#000000;fill:#aa0000;fill-opacity:1;stroke:none;stroke-width:50;marker:none;visibility:visible;display:inline;overflow:visible;enable-background:accumulate"
         d="m -982.43829,2129.7824 0.1067,0.5453 0.30313,1.2564 0.21507,0.718 0.2523,0.6825 0.28616,0.5758 0.15411,0.2251 0.16089,0.1728 0.59265,0.4842 0.57065,0.4064 0.54697,0.3371 0.51988,0.2743 0.49105,0.215 0.45892,0.166 0.42504,0.1185 0.39119,0.08 0.66548,0.069 0.49782,-0.014 0.3099,-0.044 0.10838,-0.026 0.91951,0.5928 0.85178,0.5943 0.84836,0.6621 0.32177,0.2947 0.27939,0.2929 0.23198,0.2845 0.18966,0.2693 0.24384,0.4588 0.0559,0.1761 0.0102,0.1287 -1.76111,0.3252 -0.87546,0.1659 -0.88564,0.1423 -0.65193,0.1067 -0.60962,0.1236 -1.19554,0.254 -0.63503,0.105 -0.69599,0.073 -0.78063,0.029 -0.889,-0.027 -0.52833,-0.061 -0.50964,-0.1118 -0.48769,-0.1574 -0.4691,-0.2016 -0.44537,-0.2387 -0.42337,-0.2743 -0.39796,-0.3031 -0.37422,-0.3286 -0.34881,-0.3505 -0.32176,-0.3691 -0.29294,-0.381 -0.26585,-0.3912 -0.23539,-0.3945 -0.20483,-0.3963 -0.17275,-0.3912 -0.14056,-0.3843 -0.13038,-0.5216 -0.0474,-0.4826 0.0119,-0.4386 0.0525,-0.3793 0.0746,-0.3133 0.0779,-0.2353 0.0864,-0.2016 -3.30713,3.9744 0.12864,-0.017 0.32686,0.015 0.21166,0.049 0.23029,0.095 0.2354,0.1524 0.23197,0.2219 1.20568,1.4714 0.75863,0.8434 0.42505,0.42 0.45892,0.408 0.49614,0.3878 0.53343,0.3607 0.57569,0.3234 0.61812,0.2794 0.66548,0.2252 0.71121,0.166 0.76373,0.097 0.81449,0.019 0.97202,-0.056 0.88392,-0.1032 0.80772,-0.1474 0.73999,-0.1777 0.68244,-0.2032 0.63671,-0.2168 1.17522,-0.4488 0.55369,-0.1914 0.53684,-0.1405 0.52833,-0.097 0.52665,-0.064 1.07867,-0.061 0.26248,-0.01 0.26243,0.01 1.07872,0.061 0.5266,0.064 0.52833,0.097 0.53678,0.1405 0.55375,0.1914 1.17522,0.4488 0.63671,0.2168 0.68239,0.2032 0.74004,0.1777 0.80772,0.1474 0.88397,0.1032 0.97197,0.056 0.81449,-0.019 0.76373,-0.097 0.71121,-0.166 0.66548,-0.2252 0.61807,-0.2794 0.5758,-0.3234 0.53337,-0.3607 0.4962,-0.3878 0.45886,-0.408 0.42505,-0.42 0.75863,-0.8434 1.20568,-1.4714 0.23197,-0.2219 0.2354,-0.1524 0.23029,-0.095 0.21166,-0.049 0.32681,-0.015 0.12875,0.017 -3.30719,-3.9744 0.0864,0.2016 0.0779,0.2353 0.0745,0.3133 0.0525,0.3793 0.0119,0.4386 -0.0474,0.4826 -0.13038,0.5216 -0.14056,0.3843 -0.1727,0.3912 -0.20493,0.3963 -0.2354,0.3945 -0.26584,0.3912 -0.29294,0.381 -0.32177,0.3691 -0.3488,0.3505 -0.37423,0.3286 -0.39795,0.3031 -0.42337,0.2743 -0.44532,0.2387 -0.46905,0.2016 -0.48769,0.1574 -0.50974,0.1118 -0.52833,0.061 -0.88901,0.027 -0.78063,-0.029 -0.69598,-0.073 -0.63503,-0.105 -1.19549,-0.254 -0.60962,-0.1236 -0.65198,-0.1067 -0.8856,-0.1423 -0.87551,-0.1659 -1.7611,-0.3252 0.0102,-0.1287 0.0559,-0.1761 0.24385,-0.4588 0.18966,-0.2693 0.23197,-0.2845 0.2794,-0.2929 0.32176,-0.2947 0.84837,-0.6621 0.85178,-0.5943 0.91951,-0.5928 0.10837,0.026 0.3099,0.044 0.49783,0.014 0.66553,-0.069 0.39113,-0.08 0.42505,-0.1185 0.45892,-0.166 0.49105,-0.215 0.51987,-0.2743 0.54698,-0.3371 0.57065,-0.4064 0.5927,-0.4842 0.16083,-0.1728 0.15411,-0.2251 0.28617,-0.5758 0.25235,-0.6825 0.21502,-0.718 0.30313,-1.2564 0.10669,-0.5453 -0.46227,0.047 -0.51988,0.081 -0.65703,0.1372 -0.75527,0.2066 -0.81282,0.2929 -0.82972,0.3895 -0.40982,0.2371 -0.39964,0.2658 -0.5351,0.4522 -0.51988,0.5537 -0.48596,0.6062 -0.43859,0.608 -0.65535,1.0194 -0.25062,0.4284 -0.52324,0.1965 -1.28864,0.4368 -0.801,0.2371 -0.83308,0.2116 -0.81456,0.1576 -0.0118,0 -0.0119,0 -0.81449,-0.1576 -0.83319,-0.2116 -0.80095,-0.2371 -1.28864,-0.4368 -0.52324,-0.1965 -0.25062,-0.4284 -0.65535,-1.0194 -0.43859,-0.608 -0.48601,-0.6062 -0.51983,-0.5537 -0.5351,-0.4522 -0.39964,-0.2658 -0.40982,-0.2371 -0.82972,-0.3895 -0.81282,-0.2929 -0.75527,-0.2066 -0.65703,-0.1372 -0.51982,-0.081 -0.46233,-0.047 z"
         id="path4732"
         inkscape:connector-curvature="0"
         sodipodi:nodetypes="cccccccccccccccccccccccccccccccccccccccccccccccccccccccccccccccccccccccccccccccccccccccccccccccccccccccccccccccccccccccccccccccccccccccccccccccccccccccccccccccccccccccccccccccccccccccccccccccccccccccccccccccccccccccccccccccccccccc" />
      <path
         id="path4891"
         d="m -963.23608,2103.4119 1.60699,-24.0255 5.62708,-22.0325 0.005,0.022 1.75769,-13.6756 3.22249,-6.9817 -10.44811,-2.2184 -5.95047,1.7358 -5.33073,1.5544 3.92184,17.4417 0.50802,13.547 5.0801,34.6328 z"
         style="color:#000000;fill:#ff9e9e;fill-opacity:1;fill-rule:nonzero;stroke:none;marker:none;visibility:visible;display:inline;overflow:visible;enable-background:accumulate"
         inkscape:connector-curvature="0" />
      <path
         id="path4881"
         d="m -963.23608,2103.4119 -5.08011,-34.6328 -0.50801,-13.547 -3.92184,-17.4417 -0.70954,0.2067 -5.25112,-1.1109 -3.86598,-0.8179 -5.15797,-1.0922 -5.71004,0.4538 6.23664,11.6012 0.60457,13.9128 0.28449,0.2997 0.75695,0.7993 8.08579,8.5312 8.32628,15.6619 5.80319,17.3046 0.0813,0.2421 0.0254,-0.3708 z"
         style="color:#000000;fill:#ff7f7f;fill-opacity:1;fill-rule:nonzero;stroke:none;marker:none;visibility:visible;display:inline;overflow:visible;enable-background:accumulate"
         inkscape:connector-curvature="0" />
      <path
         id="path4886"
         d="m -980.57786,2085.7534 -4.26729,-17.3926 -1.84412,-7.5118 0.0898,0.095 -0.60457,-13.9128 -6.23664,-11.6012 -0.36241,0.029 -3.13612,0.2489 2.29117,17.6618 14.07019,32.384 z"
         style="color:#000000;fill:#ff9090;fill-opacity:1;fill-rule:nonzero;stroke:none;marker:none;visibility:visible;display:inline;overflow:visible;enable-background:accumulate"
         inkscape:connector-curvature="0" />
      <path
         id="path4873"
         d="m -980.57786,2085.7534 -14.07019,-32.384 -2.29117,-17.6618 -2.83467,0.2252 -2.19121,17.6483 7.88093,14.707 13.54863,17.6398 -0.0423,-0.1745 z"
         style="color:#000000;fill:#ff7070;fill-opacity:1;fill-rule:nonzero;stroke:none;marker:none;visibility:visible;display:inline;overflow:visible;enable-background:accumulate"
         inkscape:connector-curvature="0" />
      <path
         id="path4896"
         d="m -949.81273,2036.9742 -1.204,-0.2556 -3.22249,6.9817 -1.75769,13.6756 5.57115,25.9255 0.26758,-0.7789 2.83977,-16.1141 0.25398,-13.8856 -2.7483,-15.5486 z"
         style="color:#000000;fill:#ff8989;fill-opacity:1;fill-rule:nonzero;stroke:none;marker:none;visibility:visible;display:inline;overflow:visible;enable-background:accumulate"
         inkscape:connector-curvature="0" />
      <path
         id="path4774-7"
         d="m -949.81273,2036.9742 2.7483,15.5486 -0.25398,13.8856 -2.83977,16.1141 6.94791,-20.2188 2.32157,-14.9119 -6.0504,-9.808 -2.87363,-0.6096 z"
         style="color:#000000;fill:#ffb6b6;fill-opacity:1;fill-rule:nonzero;stroke:none;marker:none;visibility:visible;display:inline;overflow:visible;enable-background:accumulate"
         inkscape:connector-curvature="0" />
    </g>
    <path
       style="color:#000000;fill:#550000;fill-opacity:1;fill-rule:nonzero;stroke:none;stroke-width:1.25;marker:none;visibility:visible;display:inline;overflow:visible;enable-background:accumulate"
       d="M 28.84375 0 C 28.84375 0 28.935377 0.16592285 28.96875 0.21875 L 0.03125 0.21875 L 0.03125 53.28125 L 1.625 52.90625 L 6.375 51.84375 L 16.78125 49.5625 L 22.25 51.0625 L 29.09375 52.96875 L 95.9375 53.03125 L 101.84375 48.71875 L 103.625 47.4375 L 120.34375 52.0625 L 123.3125 52.90625 L 124.96875 53.375 L 124.96875 0.21875 L 95.96875 0.21875 C 96.002121 0.16592285 96.093753 0 96.09375 0 C 95.967487 0.059897879 95.842897 0.14543245 95.71875 0.21875 L 29.21875 0.21875 C 29.094599 0.14543245 28.970017 0.059897879 28.84375 0 z "
       transform="translate(-1032.9074,1972.7888)"
       id="path4867" />
  </g>
</svg>
