<?xml version="1.0" encoding="UTF-8" standalone="no"?>
<!-- Created with Inkscape (http://www.inkscape.org/) -->

<svg
   xmlns:dc="http://purl.org/dc/elements/1.1/"
   xmlns:cc="http://creativecommons.org/ns#"
   xmlns:rdf="http://www.w3.org/1999/02/22-rdf-syntax-ns#"
   xmlns:svg="http://www.w3.org/2000/svg"
   xmlns="http://www.w3.org/2000/svg"
   xmlns:sodipodi="http://sodipodi.sourceforge.net/DTD/sodipodi-0.dtd"
   xmlns:inkscape="http://www.inkscape.org/namespaces/inkscape"
   width="124.94698"
   height="177.16536"
   id="svg3783"
   version="1.1"
   inkscape:version="0.48.4 r9939"
   sodipodi:docname="yaks_logo_sticker.svg"
   inkscape:export-filename="/tmp/yaks_logo_50mm_300dpi.png"
   inkscape:export-xdpi="300"
   inkscape:export-ydpi="300">
  <defs
     id="defs3785" />
  <sodipodi:namedview
     id="base"
     pagecolor="#ffffff"
     bordercolor="#666666"
     borderopacity="1.0"
     inkscape:pageopacity="0.0"
     inkscape:pageshadow="2"
     inkscape:zoom="2.8"
     inkscape:cx="-11.315714"
     inkscape:cy="69.671282"
     inkscape:document-units="px"
     inkscape:current-layer="layer1"
     showgrid="false"
     fit-margin-top="0"
     fit-margin-left="0"
     fit-margin-right="0"
     fit-margin-bottom="0"
     units="mm"
     inkscape:window-width="1916"
     inkscape:window-height="1076"
     inkscape:window-x="0"
     inkscape:window-y="0"
     inkscape:window-maximized="0" />
  <metadata
     id="metadata3788">
    <rdf:RDF>
      <cc:Work
         rdf:about="">
        <dc:format>image/svg+xml</dc:format>
        <dc:type
           rdf:resource="http://purl.org/dc/dcmitype/StillImage" />
        <dc:title></dc:title>
      </cc:Work>
    </rdf:RDF>
  </metadata>
  <g
     inkscape:label="Layer 1"
     inkscape:groupmode="layer"
     id="layer1"
     transform="translate(1032.9074,-1972.7888)">
    <path
       inkscape:connector-curvature="0"
       style="fill:none;stroke:#ff00ff;stroke-width:1.25;stroke-miterlimit:4;stroke-dasharray:none"
       d="m -1003.6978,1973.7735 c 0,0 0.1017,0.1938 0.1544,0.2782 -0.033,-0.017 -0.059,-0.046 -0.092,-0.061 0,0 1.1554,1.7994 2.3796,4.4816 0.1786,0.3959 0.3797,0.7753 0.5563,1.2051 0.026,0.062 0.036,0.1226 0.061,0.1855 0.1778,0.4389 0.358,0.8928 0.5255,1.3599 0.31557,0.8636 0.58557,1.7844 0.83437,2.7197 0.2013,0.7789 0.4007,1.577 0.5253,2.3799 0.01,0.053 0.023,0.102 0.031,0.1545 0.2536,1.7163 0.2913,3.4642 0,5.1304 -0.1,0.5723 -0.2482,1.1191 -0.4327,1.6689 -0.09,0.2616 -0.1684,0.5179 -0.278,0.7728 -0.01,0.021 -0.021,0.043 -0.03,0.061 -0.1152,0.2677 -0.2621,0.5131 -0.4017,0.7727 -0.22907,0.426 -0.47167,0.8592 -0.74157,1.2672 -0.5248,0.7924 -1.1059,1.556 -1.7616,2.2871 -0.02,0.022 -0.043,0.042 -0.061,0.061 -0.321,0.3526 -0.6737,0.6804 -1.0199,1.0198 -0.021,0.021 -0.042,0.043 -0.061,0.061 -0.3481,0.3395 -0.7122,0.6924 -1.0818,1.02 -0.022,0.02 -0.039,0.042 -0.061,0.061 -0.3709,0.327 -0.7551,0.642 -1.1435,0.9579 -0.023,0.019 -0.039,0.044 -0.061,0.061 -0.3895,0.3155 -0.7708,0.6214 -1.1743,0.9271 -0.024,0.018 -0.038,0.044 -0.061,0.061 -0.4048,0.3055 -0.8213,0.5997 -1.2361,0.8963 -0.024,0.017 -0.039,0.043 -0.061,0.061 -0.8545,0.6092 -1.7529,1.1836 -2.6269,1.7615 -0.024,0.016 -0.038,0.046 -0.061,0.061 -1.7927,1.1839 -3.5817,2.2918 -5.254,3.3995 -0.043,0.029 -0.08,0.064 -0.1236,0.093 -0.7703,0.512 -1.5238,1.0072 -2.2251,1.5143 -0.035,0.025 -0.058,0.066 -0.093,0.092 -0.2216,0.1619 -0.4618,0.3251 -0.6797,0.4945 -0.1047,0.081 -0.2055,0.165 -0.3091,0.2472 -0.3133,0.2507 -0.6226,0.5081 -0.9272,0.7726 -0.011,0.01 -0.02,0.022 -0.031,0.031 -0.3228,0.2811 -0.6452,0.539 -0.958,0.8346 -0.3,0.2813 -0.5751,0.572 -0.8654,0.8652 -0.3571,0.3638 -0.709,0.7329 -1.0507,1.1128 -0.7073,0.781 -1.3723,1.6043 -2.0088,2.4416 -0.4,0.526 -0.7739,1.0651 -1.1436,1.6071 -0.2873,0.4214 -0.5662,0.8388 -0.8346,1.2671 -0.057,0.091 -0.099,0.1868 -0.1542,0.2783 -0.027,0.044 -0.066,0.078 -0.093,0.1236 -0.012,0.02 -0.019,0.041 -0.031,0.061 -0.024,0.04 -0.039,0.083 -0.06,0.1237 -0.04,0.063 -0.085,0.1211 -0.1236,0.1854 -1.0009,1.6866 -1.8973,3.4087 -2.5652,5.0995 l 0.093,-0.031 c -1.234,3.15 -1.8486,6.198 -1.6688,8.6847 1.7492,13.4885 11.3025,18.8463 16.9359,20.8616 0,0 -10.0426,5.3149 -11.033,10.2299 -1.3885,6.8894 2.55,15.8194 8.7152,19.1929 3.8982,2.133 13.1965,-1.9162 13.1965,-1.9162 l 1.1126,2.3797 6.15007,13.2279 4.9139,24.3541 -0.061,0.5563 -2.7196,21.9433 0.061,0 -0.061,0.6182 24.5387,2.7816 0.4636,-0.031 24.1061,-2.7506 -0.061,-0.6182 0.061,0 -2.7506,-21.9743 -0.061,-0.5254 4.5431,-22.5306 0.3708,-1.8234 7.2937,-15.6077 c 0,0 9.2982,4.0493 13.1964,1.9162 6.1652,-3.3736 10.1037,-12.3034 8.7153,-19.1928 -0.9905,-4.9151 -11.0331,-10.23 -11.0331,-10.23 4.9293,-1.7633 12.8399,-6.1038 15.9161,-16.1947 0.4395,-1.4417 0.7703,-2.9809 0.989,-4.6669 0.126,-1.7441 -0.1174,-3.7688 -0.7108,-5.9031 -0.1483,-0.5337 -0.3364,-1.0609 -0.5254,-1.6071 -0.1328,-0.3841 -0.2805,-0.7862 -0.4327,-1.1745 l 0.093,0.031 c -0.7255,-1.8368 -1.6963,-3.7071 -2.8123,-5.5322 -0.3325,-0.5437 -0.6873,-1.0744 -1.0508,-1.6072 -0.3698,-0.542 -0.7435,-1.0811 -1.1435,-1.6071 -0.7138,-0.9388 -1.454,-1.8534 -2.2561,-2.7198 -0.095,-0.1021 -0.1823,-0.208 -0.2781,-0.309 -0.1649,-0.1753 -0.3262,-0.3538 -0.4945,-0.5256 -0.2904,-0.2932 -0.5963,-0.5839 -0.8962,-0.8652 -0.01,-0.01 -0.025,0.01 -0.031,0 -0.3056,-0.2861 -0.6121,-0.5623 -0.9272,-0.8346 -0.011,-0.01 -0.02,-0.022 -0.031,-0.031 -0.3065,-0.2662 -0.6121,-0.5205 -0.9272,-0.7726 -0.3528,-0.2822 -0.6877,-0.5718 -1.0507,-0.8344 -0.737,-0.5332 -1.5364,-1.0378 -2.3488,-1.5762 -0.024,-0.016 -0.038,-0.046 -0.061,-0.061 -1.6556,-1.0953 -3.4512,-2.1985 -5.2231,-3.3688 -0.024,-0.016 -0.037,-0.045 -0.061,-0.061 -0.8737,-0.5777 -1.7415,-1.1525 -2.596,-1.7616 -0.024,-0.017 -0.038,-0.044 -0.061,-0.061 -0.4149,-0.2965 -0.8315,-0.5908 -1.2362,-0.8963 -0.023,-0.018 -0.039,-0.044 -0.061,-0.061 -0.4038,-0.3059 -0.8154,-0.6114 -1.2053,-0.9272 -0.023,-0.019 -0.039,-0.044 -0.061,-0.061 -0.3886,-0.3159 -0.7728,-0.631 -1.1435,-0.9579 -0.022,-0.019 -0.04,-0.043 -0.061,-0.061 -0.3695,-0.3276 -0.7336,-0.6804 -1.0818,-1.02 -0.011,-0.01 -0.02,-0.021 -0.031,-0.031 -0.3567,-0.3488 -0.6896,-0.6881 -1.0198,-1.0507 -0.02,-0.022 -0.043,-0.041 -0.061,-0.061 -0.6561,-0.7312 -1.2677,-1.4943 -1.7925,-2.287 -0.27,-0.408 -0.5126,-0.8413 -0.7417,-1.2672 -0.2792,-0.5191 -0.5264,-1.0574 -0.7109,-1.6072 -1.0859,-3.2384 -0.5971,-6.9295 0.3709,-10.2299 0.019,-0.063 0.043,-0.1226 0.061,-0.1854 0.1485,-0.4944 0.2969,-0.98 0.4636,-1.4527 0,-0.01 0,-0.022 0,-0.031 0.1842,-0.5212 0.3901,-1.0274 0.5872,-1.5144 0.026,-0.062 0.036,-0.1231 0.061,-0.1853 0.1765,-0.43 0.3778,-0.8093 0.5563,-1.2053 1.2241,-2.6822 2.4107,-4.4816 2.4106,-4.4816 -0.042,0.02 -0.083,0.041 -0.1236,0.061 0.052,-0.084 0.1545,-0.2782 0.1545,-0.2782 -0.01,0 -0.023,0 -0.031,0 0,0 -0.03,0.03 -0.031,0.031 -2.8142,1.3665 -4.7453,6.0268 -7.0292,17.8019 -0.079,0.4073 -0.1373,0.8493 -0.1854,1.2673 -0.019,0.1629 -0.017,0.33 -0.031,0.4946 0,0.031 0,0.061 0,0.093 -0.021,0.2241 -0.049,0.4533 -0.061,0.6799 -0.011,0.2345 -0.029,0.474 -0.031,0.711 0,0.1976 0,0.3878 0,0.5871 0,0.3981 0.038,0.8006 0.061,1.2055 0,0.032 0,0.061 0,0.092 9e-4,0.02 0,0.042 0,0.06 0.028,0.4302 0.075,0.8613 0.1236,1.2981 0.053,0.4514 0.1115,0.9026 0.1854,1.3599 1.3918,8.9605 6.4735,19.0179 7.201,26.7339 l 0.031,0 c 0.2079,2.4785 -0.051,4.719 -1.0508,6.5829 -0.1447,0.2699 -0.3277,0.6047 -0.5563,0.9582 -1.2037,1.8609 -3.9156,4.6661 -7.2181,6.3357 l -1.3908,-2.2253 -2.8432,-0.587 -1.1744,-0.2474 -10.3532,-2.1944 -5.872,1.6998 -5.2848,1.5455 -0.2164,0.061 c -0.35,0.01 -0.6965,0.021 -1.0507,0.031 l -4.6358,-0.9888 -3.8014,-0.8036 -5.0993,-1.0817 -6.0266,0.4636 -3.0905,0.2473 -2.8123,0.2473 -0.061,0.4635 c -1.44447,-1.4947 -2.82787,-2.9997 -3.32387,-3.9252 -0.6303,-1.1757 -0.972,-2.4876 -1.0816,-3.9251 -0.028,-0.3593 -0.031,-0.7392 -0.031,-1.1125 -3e-4,-0.5008 0.018,-1.0211 0.061,-1.5453 l 0.031,0 c 0.7274,-7.716 5.80897,-17.7734 7.20077,-26.7339 0.074,-0.4573 0.1316,-0.9085 0.1854,-1.3599 0.048,-0.4368 0.096,-0.8679 0.1236,-1.2981 10e-4,-0.02 -10e-4,-0.043 0,-0.061 7e-4,-0.011 -8e-4,-0.02 0,-0.031 0,-0.061 0,-0.1245 0,-0.1854 0.02,-0.3637 0.059,-0.7235 0.061,-1.0818 0.022,-1.3092 -0.072,-2.6104 -0.309,-3.8324 -0.2867,-1.4783 -0.5471,-2.8171 -0.8345,-4.0795 -0.5748,-2.5249 -0.8137,-4.6473 -1.4044,-6.3976 -1.47697,-4.3758 -3.02047,-6.5162 -4.79017,-7.3557 0,0 0.028,0.057 0.031,0.061 -0.033,-0.016 -0.06,-0.047 -0.093,-0.061 z"
       id="path4710-9"
       sodipodi:nodetypes="ccccccccccccccccccccccccccccccccccccccccccccccscccccccsccccccccccccccccccsccsccccccccccccccccccccccccccccccccccccccccccccccccccccccscccccccccccccccccccccccccccccccccccccccccccc" />
  </g>
</svg>
